<svg width="20" height="20" viewBox="0 0 20 20" fill="none" xmlns="http://www.w3.org/2000/svg">
<path fill-rule="evenodd" clip-rule="evenodd" d="M0.740033 5.75463C0.759241 5.60033 0.789555 5.39409 0.854302 5.20459C0.894021 5.01184 0.981458 4.8578 1.05832 4.75072C1.16395 4.60357 1.29329 4.48346 1.41194 4.38838C1.64954 4.19798 1.95549 4.02065 2.27614 3.85858C2.9258 3.53021 3.78633 3.19027 4.67152 2.87382C6.45044 2.23784 8.44164 1.65724 9.31655 1.40917C9.7722 1.27998 10.2457 1.2861 10.697 1.4252C11.5687 1.69389 13.5558 2.31898 15.3301 2.96917C16.2137 3.29295 17.0669 3.63106 17.7078 3.94059C18.024 4.09326 18.321 4.25433 18.5503 4.41847C18.6633 4.49934 18.7914 4.60307 18.8993 4.73064C18.9711 4.81545 19.0869 4.97255 19.139 5.18948C19.2074 5.38307 19.2389 5.5962 19.2586 5.7546C19.2884 5.99383 19.3088 6.28275 19.3228 6.59886C19.351 7.23328 19.3558 8.02982 19.3475 8.8651C19.331 10.5385 19.2616 12.4124 19.2135 13.5527C19.172 14.5348 18.5556 15.3919 17.6499 15.7542L10.9278 18.443C10.3317 18.6814 9.66684 18.6814 9.07082 18.443L2.34871 15.7542C1.44301 15.3919 0.826609 14.5348 0.785142 13.5527C0.736998 12.4124 0.667652 10.5385 0.651109 8.86508C0.642851 8.02981 0.647607 7.23328 0.675805 6.59886C0.689856 6.28276 0.710256 5.99385 0.740033 5.75463ZM9.16591 16.686V9.31225C9.13468 9.30117 9.1036 9.28945 9.0727 9.27709L2.34491 6.58598L2.34083 6.67287C2.31462 7.26254 2.30954 8.02408 2.31769 8.84861C2.33397 10.4948 2.4024 12.3474 2.45033 13.4824C2.46381 13.8016 2.66403 14.0852 2.96769 14.2067L9.16591 16.686ZM10.8326 16.686V9.31229C10.8638 9.3012 10.895 9.28947 10.9259 9.27709L17.6537 6.58596L17.6578 6.67289C17.684 7.26255 17.6891 8.02409 17.6809 8.84862C17.6647 10.4948 17.5962 12.3474 17.5483 13.4824C17.5348 13.8016 17.3346 14.0852 17.0309 14.2067L10.8326 16.686ZM14.7566 4.53407C15.4169 4.77603 16.0321 5.01624 16.5375 5.23738L14.1796 6.18054L8.05933 3.51658C8.77015 3.29974 9.38064 3.12336 9.77118 3.01263C9.91592 2.9716 10.061 2.97322 10.2061 3.01793C11.0711 3.28454 13.0245 3.89932 14.7566 4.53407ZM5.66375 4.29157L12.0034 7.05102L10.3069 7.72963C10.1082 7.8091 9.89036 7.8091 9.69168 7.72963L3.34793 5.19213C3.86681 4.95336 4.52136 4.69747 5.23258 4.44321C5.37503 4.39228 5.51899 4.34168 5.66375 4.29157Z" fill="#E6ECE9"/>
</svg>
